# xmcd
#
# Track frame offsets: 
#        182
#        11597
#        25770
#        37315
#        48307
#        62405
#        74487
#        89112
#        101725
#        113645
#        124335
#        136797
#        149747
#        163915
#        177542
#        191010
#        205142
#        217977
#
# Disc length: 3025 seconds
#
# Revision: 2
# Processed by: cddbd v1.5.2PL0 Copyright (c) Steve Scherf et al.
# Submitted via: ExactAudioCopyFreeDBPlugin 1.0
#
DISCID=170bcf12
DTITLE=J.B. Lenoir - Eisenhower Blues
DYEAR=1992
DGENRE=Blues
TTITLE0=Natural man
TTITLE1=Don't dog your woman
TTITLE2=If I give my love to you
TTITLE3=Low down dirty shame
TTITLE4=We can't go on this way
TTITLE5=When I am drinking
TTITLE6=I've been down for so long
TTITLE7=Daddy talk to your son
TTITLE8=Carrie Lee
TTITLE9=I don't know
TTITLE10=Korea blues
TTITLE11=Eisenhower Blues
TTITLE12=Man watch your woman
TTITLE13=I'm in Korea
TTITLE14=Sitting down thinking
TTITLE15=What I have done
TTITLE16=If you love me
TTITLE17=Voodoo boogie
EXTD=
EXTT0=
EXTT1=
EXTT2=
EXTT3=
EXTT4=
EXTT5=
EXTT6=
EXTT7=
EXTT8=
EXTT9=
EXTT10=
EXTT11=
EXTT12=
EXTT13=
EXTT14=
EXTT15=
EXTT16=
EXTT17=
PLAYORDER=
